# xmcd
#
# Track frame offsets:
#	150
#	17935
#	34003
#	47998
#	60927
#	73617
#	88050
#	101305
#	120958
#	136268
#	152198
#	166330
#	181150
#	198013
#	211740
#	226618
#	241490
#	255868
#
# Disc length: 3580 seconds
#
# Revision: 1
# Processed by: cddbd v1.5.1PL2 Copyright (c) Steve Scherf et al.
# Submitted via: audiograbber 1.83.01
#
DISCID=d90dfa12
DTITLE=Diverse - Deutsche Country- unt Truckersongs CD 4(4)
DYEAR=1900
DGENRE=Country
TTITLE0=Gunter Gabriel - Komm unter meine Decke
TTITLE1=Linda Feller - Andre Mütter haben auch ein schönes Kind
TTITLE2=Tom Astor - Du bist da (wenn´s drum geht)
TTITLE3=Trucks - Sie liebt nur Kris Kristofferson
TTITLE4=Jonny Hill - Kann Liebe alles verzeih´n
TTITLE5=Greyhounds - Asphalt Cowboy
TTITLE6=Dagmar - Steht auf und singt mit
TTITLE7=Truck Stop - Nein danke, ich rauch nicht mehr
TTITLE8=Hanna and Daana - Ein Herz voller Gefühl
TTITLE9=Tex Haper - Auch ein Trucker hat ein Herz
TTITLE10=Tom Astor - Take it easy, nimm´s leicht
TTITLE11=Linda Feller - Sonnenkinder sind wir alle
TTITLE12=Rubber Duck - Ich nehm den längsten Weg nach Hause
TTITLE13=Joe Hodgkins Boss Band - Es gibt immer einen Grund
TTITLE14=Greyhounds - Tausend Stürme
TTITLE15=Dagmar - Ich lieb dich noch in hundert Jahren
TTITLE16=Gunter Gabriel - Den Rocker kriegst du nicht mehr aus mir raus
TTITLE17=Max Zwo - Super, Normal, Bleifrei, Diesel
EXTD=
EXTT0=
EXTT1=
EXTT2=
EXTT3=
EXTT4=
EXTT5=
EXTT6=
EXTT7=
EXTT8=
EXTT9=
EXTT10=
EXTT11=
EXTT12=
EXTT13=
EXTT14=
EXTT15=
EXTT16=
EXTT17=
PLAYORDER=
